# xmcd
#
# Track frame offsets:
#	150
#	17500
#	32290
#	49865
#	66729
#	81793
#	102316
#	122085
#	142094
#	160594
#	177029
#	195276
#	215007
#	234725
#	252572
#	266654
#	284573
#
# Disc length: 4064 seconds
#
# Revision: 0
# Processed by: cddbd v1.4PL0 Copyright (c) Steve Scherf et al.
# Submitted via: dBpowerAMP V4.0
#
DISCID=f70fde11
DTITLE=Jeans - Lo mejor de Jeans
DYEAR=1900
DGENRE=Blues
TTITLE0=Me pngo mis jeans
TTITLE1=Pepe
TTITLE2=Tal Vez
TTITLE3=Nueva generación
TTITLE4=Te quiero
TTITLE5=Enferma de amor
TTITLE6=Estoy por él
TTITLE7=La ilusión del primer amor
TTITLE8=No puede ser
TTITLE9=Tan dentro de mí
TTITLE10=Dime que me amas
TTITLE11=Sólo vivo para tí
TTITLE12=Muero por tí
TTITLE13=Escaparé contigo
TTITLE14=Tonta
TTITLE15=Delfines
TTITLE16=Entre azul y bienas noches
EXTD=
EXTT0=
EXTT1=
EXTT2=
EXTT3=
EXTT4=
EXTT5=
EXTT6=
EXTT7=
EXTT8=
EXTT9=
EXTT10=
EXTT11=
EXTT12=
EXTT13=
EXTT14=
EXTT15=
EXTT16=
PLAYORDER=
